<?xml version="1.0" encoding="iso-8859-1"?>
<!-- Generator: Adobe Illustrator 19.0.0, SVG Export Plug-In . SVG Version: 6.00 Build 0)  -->
<svg version="1.1" id="Capa_1" xmlns="http://www.w3.org/2000/svg" xmlns:xlink="http://www.w3.org/1999/xlink" x="0px" y="0px"
	 viewBox="0 0 512 512" style="enable-background:new 0 0 512 512;" xml:space="preserve">
<path style="fill:#F2F2F2;" d="M490.667,512H21.333C9.6,512,0,502.4,0,490.667V179.2h512v311.467C512,502.4,502.4,512,490.667,512z"
	/>
<path style="fill:#FF7058;" d="M512,164.267H0v-102.4c0-11.733,9.6-21.333,21.333-21.333h469.333c11.733,0,21.333,9.6,21.333,21.333
	L512,164.267L512,164.267z"/>
<rect y="164.27" style="fill:#F1543F;" width="512" height="14.933"/>
<circle style="fill:#FFFFFF;" cx="129.07" cy="102.4" r="19.2"/>
<path style="fill:#40596B;" d="M129.067,109.867L129.067,109.867c-8.533,0-14.933-6.4-14.933-14.933v-80
	C114.133,6.4,120.533,0,129.067,0l0,0C137.6,0,144,6.4,144,14.933v78.933C145.067,103.467,137.6,109.867,129.067,109.867z"/>
<circle style="fill:#FFFFFF;" cx="382.93" cy="102.4" r="19.2"/>
<path style="fill:#40596B;" d="M382.933,109.867L382.933,109.867c-8.533,0-14.933-6.4-14.933-14.933v-80C368,6.4,374.4,0,382.933,0
	l0,0c8.533,0,14.933,6.4,14.933,14.933v78.933C397.867,103.467,391.467,109.867,382.933,109.867z"/>
<g>
	<rect x="154.67" y="216.53" style="fill:#CDD6E0;" width="85.33" height="65.07"/>
	<rect x="272" y="216.53" style="fill:#CDD6E0;" width="85.33" height="65.07"/>
	<rect x="389.33" y="216.53" style="fill:#CDD6E0;" width="85.33" height="65.07"/>
	<rect x="37.33" y="312.53" style="fill:#CDD6E0;" width="85.33" height="65.07"/>
</g>
<rect x="154.67" y="312.53" style="fill:#FFD15C;" width="85.33" height="65.07"/>
<g>
	<rect x="272" y="312.53" style="fill:#CDD6E0;" width="85.33" height="65.07"/>
	<rect x="389.33" y="312.53" style="fill:#CDD6E0;" width="85.33" height="65.07"/>
	<rect x="37.33" y="409.6" style="fill:#CDD6E0;" width="85.33" height="65.07"/>
	<rect x="154.67" y="409.6" style="fill:#CDD6E0;" width="85.33" height="65.07"/>
	<rect x="272" y="409.6" style="fill:#CDD6E0;" width="85.33" height="65.07"/>
</g>
<g>
</g>
<g>
</g>
<g>
</g>
<g>
</g>
<g>
</g>
<g>
</g>
<g>
</g>
<g>
</g>
<g>
</g>
<g>
</g>
<g>
</g>
<g>
</g>
<g>
</g>
<g>
</g>
<g>
</g>
</svg>
