<svg xmlns="http://www.w3.org/2000/svg" height="512pt" version="1.1" viewBox="-26 0 512 512.00002" width="512pt">
<g id="surface1">
<path d="M 88.277344 344.277344 L 88.277344 185.378906 C 88.304688 175.640625 96.191406 167.753906 105.929688 167.722656 L 406.070312 167.722656 L 406.070312 17.65625 C 406.039062 7.917969 398.152344 0.0273438 388.414062 0 L 114.757812 0 L 114.757812 88.277344 C 114.757812 98.027344 106.855469 105.929688 97.105469 105.929688 L 0 105.929688 L 0 494.34375 C 0.0273438 504.082031 7.917969 511.96875 17.65625 512 L 388.414062 512 C 398.152344 511.96875 406.039062 504.082031 406.070312 494.34375 L 406.070312 361.929688 L 105.929688 361.929688 C 96.191406 361.902344 88.304688 354.015625 88.277344 344.277344 Z M 88.277344 344.277344 " style=" stroke:none;fill-rule:nonzero;fill:rgb(100%,91.372549%,80%);fill-opacity:1;" />
<path d="M 114.757812 512 L 388.414062 512 C 398.164062 512 406.070312 504.09375 406.070312 494.34375 L 406.070312 239.148438 C 357.847656 371.226562 249.707031 472.515625 114.757812 512 Z M 114.757812 512 " style=" stroke:none;fill-rule:nonzero;fill:rgb(100%,88.627451%,74.117647%);fill-opacity:1;" />
<path d="M 185.378906 211.863281 L 132.414062 211.863281 L 132.414062 264.828125 L 185.378906 264.828125 C 195.128906 264.828125 203.035156 256.921875 203.035156 247.171875 L 203.035156 229.519531 C 203.035156 219.765625 195.128906 211.863281 185.378906 211.863281 Z M 185.378906 211.863281 " style=" stroke:none;fill-rule:nonzero;fill:rgb(79.215686%,99.215686%,100%);fill-opacity:1;" />
<path d="M 441.378906 167.722656 L 105.929688 167.722656 C 96.191406 167.753906 88.304688 175.640625 88.277344 185.378906 L 88.277344 344.273438 C 88.304688 354.015625 96.191406 361.902344 105.929688 361.929688 L 441.378906 361.929688 C 451.117188 361.902344 459.007812 354.015625 459.035156 344.273438 L 459.035156 185.378906 C 459.003906 175.640625 451.117188 167.753906 441.378906 167.722656 Z M 203.035156 247.171875 C 203.035156 256.921875 195.128906 264.828125 185.378906 264.828125 L 132.414062 264.828125 L 132.414062 211.859375 L 185.378906 211.859375 C 195.128906 211.859375 203.035156 219.765625 203.035156 229.515625 Z M 308.964844 282.484375 C 308.964844 301.984375 293.15625 317.792969 273.65625 317.792969 L 238.347656 317.792969 L 238.347656 211.863281 L 273.65625 211.863281 C 293.15625 211.863281 308.964844 227.671875 308.964844 247.171875 Z M 344.277344 211.863281 L 344.277344 264.828125 Z M 344.277344 211.863281 " style=" stroke:none;fill-rule:nonzero;fill:rgb(79.215686%,99.215686%,100%);fill-opacity:1;" />
<path d="M 114.757812 88.277344 L 114.757812 0 L 0 105.929688 L 97.105469 105.929688 C 106.855469 105.929688 114.757812 98.027344 114.757812 88.277344 Z M 114.757812 88.277344 " style=" stroke:none;fill-rule:nonzero;fill:rgb(100%,66.27451%,57.647059%);fill-opacity:1;" />
<path d="M 273.65625 211.863281 L 238.34375 211.863281 L 238.34375 317.792969 L 273.65625 317.792969 C 293.15625 317.792969 308.964844 301.984375 308.964844 282.484375 L 308.964844 247.171875 C 308.964844 227.671875 293.15625 211.863281 273.65625 211.863281 Z M 273.65625 211.863281 " style=" stroke:none;fill-rule:nonzero;fill:rgb(79.215686%,99.215686%,100%);fill-opacity:1;" />
<path d="M 132.414062 326.621094 C 127.539062 326.621094 123.585938 322.667969 123.585938 317.792969 L 123.585938 211.863281 C 123.585938 206.988281 127.539062 203.035156 132.414062 203.035156 L 185.378906 203.035156 C 200.007812 203.035156 211.863281 214.890625 211.863281 229.515625 L 211.863281 247.171875 C 211.863281 261.796875 200.003906 273.65625 185.378906 273.65625 L 141.242188 273.65625 L 141.242188 317.792969 C 141.242188 322.667969 137.289062 326.621094 132.414062 326.621094 Z M 141.242188 256 L 185.378906 256 C 190.253906 256 194.207031 252.046875 194.207031 247.171875 L 194.207031 229.515625 C 194.207031 224.640625 190.253906 220.691406 185.378906 220.691406 L 141.242188 220.691406 Z M 141.242188 256 " style=" stroke:none;fill-rule:nonzero;fill:rgb(92.941176%,10.980392%,14.117647%);fill-opacity:1;" />
<path d="M 273.65625 326.621094 L 238.34375 326.621094 C 233.46875 326.621094 229.519531 322.667969 229.519531 317.792969 L 229.519531 211.863281 C 229.519531 206.988281 233.46875 203.035156 238.34375 203.035156 L 273.65625 203.035156 C 298.019531 203.0625 317.765625 222.808594 317.792969 247.171875 L 317.792969 282.484375 C 317.765625 306.847656 298.019531 326.589844 273.65625 326.621094 Z M 247.171875 308.964844 L 273.65625 308.964844 C 288.28125 308.964844 300.136719 297.109375 300.136719 282.484375 L 300.136719 247.171875 C 300.136719 232.546875 288.28125 220.691406 273.65625 220.691406 L 247.171875 220.691406 Z M 247.171875 308.964844 " style=" stroke:none;fill-rule:nonzero;fill:rgb(92.941176%,10.980392%,14.117647%);fill-opacity:1;" />
<path d="M 344.277344 326.621094 C 339.402344 326.621094 335.449219 322.667969 335.449219 317.792969 L 335.449219 211.863281 C 335.449219 206.988281 339.402344 203.035156 344.277344 203.035156 L 414.898438 203.035156 C 419.773438 203.035156 423.722656 206.988281 423.722656 211.863281 C 423.722656 216.738281 419.773438 220.691406 414.898438 220.691406 L 353.105469 220.691406 L 353.105469 317.792969 C 353.105469 322.667969 349.152344 326.621094 344.277344 326.621094 Z M 344.277344 326.621094 " style=" stroke:none;fill-rule:nonzero;fill:rgb(92.941176%,10.980392%,14.117647%);fill-opacity:1;" />
<path d="M 397.242188 273.65625 L 344.277344 273.65625 C 339.402344 273.65625 335.449219 269.703125 335.449219 264.828125 C 335.449219 259.953125 339.402344 256 344.277344 256 L 397.242188 256 C 402.117188 256 406.070312 259.953125 406.070312 264.828125 C 406.070312 269.703125 402.117188 273.65625 397.242188 273.65625 Z M 397.242188 273.65625 " style=" stroke:none;fill-rule:nonzero;fill:rgb(92.941176%,10.980392%,14.117647%);fill-opacity:1;" />
</g>
</svg>